<svg width="19" height="19" viewBox="0 0 19 19" fill="none" xmlns="http://www.w3.org/2000/svg">
<path d="M13.8536 13.6464L14.2071 13.2929L13.8536 12.9393L13.5 13.2929L13.8536 13.6464ZM17.3536 17.1464L17.7071 17.5L18.0607 17.1464L17.7071 16.7929L17.3536 17.1464ZM13.1464 14.3536L12.7929 14L12.4393 14.3536L12.7929 14.7071L13.1464 14.3536ZM16.6464 17.8536L16.2929 18.2071L16.6464 18.5607L17 18.2071L16.6464 17.8536ZM1 8.5C1 4.63401 4.13401 1.5 8 1.5V0.5C3.58172 0.5 0 4.08172 0 8.5H1ZM8 15.5C4.13401 15.5 1 12.366 1 8.5H0C0 12.9183 3.58172 16.5 8 16.5V15.5ZM15 8.5C15 12.366 11.866 15.5 8 15.5V16.5C12.4183 16.5 16 12.9183 16 8.5H15ZM8 1.5C11.866 1.5 15 4.63401 15 8.5H16C16 4.08172 12.4183 0.5 8 0.5V1.5ZM8 1.5C4.13401 1.5 1 4.63401 1 8.5H2C2 5.18629 4.68629 2.5 8 2.5V1.5ZM15 8.5C15 4.63401 11.866 1.5 8 1.5V2.5C11.3137 2.5 14 5.18629 14 8.5H15ZM8 15.5C11.866 15.5 15 12.366 15 8.5H14C14 11.8137 11.3137 14.5 8 14.5V15.5ZM1 8.5C1 12.366 4.13401 15.5 8 15.5V14.5C4.68629 14.5 2 11.8137 2 8.5H1ZM13.5 14L17 17.5L17.7071 16.7929L14.2071 13.2929L13.5 14ZM13.5 14.7071L14.2071 14L13.5 13.2929L12.7929 14L13.5 14.7071ZM17 17.5L13.5 14L12.7929 14.7071L16.2929 18.2071L17 17.5ZM17 16.7929L16.2929 17.5L17 18.2071L17.7071 17.5L17 16.7929Z" fill="#C8C8C8"/>
</svg>
