<svg width="147" height="146" viewBox="0 0 147 146" fill="none" xmlns="http://www.w3.org/2000/svg">
<g opacity="0.5">
<path fill-rule="evenodd" clip-rule="evenodd" d="M73.5 145C113.541 145 146 112.765 146 73C146 33.2355 113.541 1 73.5 1C33.4594 1 1 33.2355 1 73C1 112.765 33.4594 145 73.5 145Z" stroke="url(#paint0_linear)"/>
<path fill-rule="evenodd" clip-rule="evenodd" d="M73.5 136C108.57 136 137 107.794 137 73C137 38.2061 108.57 10 73.5 10C38.4299 10 10 38.2061 10 73C10 107.794 38.4299 136 73.5 136Z" stroke="url(#paint1_linear)"/>
<path fill-rule="evenodd" clip-rule="evenodd" d="M73.5 127C103.6 127 128 102.823 128 73C128 43.1766 103.6 19 73.5 19C43.4005 19 19 43.1766 19 73C19 102.823 43.4005 127 73.5 127Z" stroke="url(#paint2_linear)"/>
<path fill-rule="evenodd" clip-rule="evenodd" d="M74 107C92.7777 107 108 92.0015 108 73.5C108 54.9985 92.7777 40 74 40C55.2223 40 40 54.9985 40 73.5C40 92.0015 55.2223 107 74 107Z" stroke="url(#paint3_linear)"/>
<path fill-rule="evenodd" clip-rule="evenodd" d="M74 142C112.108 142 143 111.332 143 73.5C143 35.6685 112.108 5 74 5C35.8924 5 5 35.6685 5 73.5C5 111.332 35.8924 142 74 142Z" stroke="url(#paint4_linear)"/>
<path fill-rule="evenodd" clip-rule="evenodd" d="M73.5 118C98.629 118 119 97.8528 119 73C119 48.1472 98.629 28 73.5 28C48.371 28 28 48.1472 28 73C28 97.8528 48.371 118 73.5 118Z" stroke="url(#paint5_linear)"/>
<path fill-rule="evenodd" clip-rule="evenodd" d="M74 85C80.6274 85 86 79.6274 86 73C86 66.3726 80.6274 61 74 61C67.3726 61 62 66.3726 62 73C62 79.6274 67.3726 85 74 85Z" stroke="url(#paint6_linear)"/>
</g>
<defs>
<linearGradient id="paint0_linear" x1="1" y1="1" x2="1" y2="145" gradientUnits="userSpaceOnUse">
<stop stop-color="white" stop-opacity="0.137593"/>
<stop offset="0.500581" stop-color="#CBCBCB"/>
<stop offset="1" stop-color="white" stop-opacity="0.01"/>
</linearGradient>
<linearGradient id="paint1_linear" x1="10" y1="10" x2="10" y2="136" gradientUnits="userSpaceOnUse">
<stop stop-color="white" stop-opacity="0.137593"/>
<stop offset="0.500581" stop-color="#CBCBCB"/>
<stop offset="1" stop-color="white" stop-opacity="0.01"/>
</linearGradient>
<linearGradient id="paint2_linear" x1="19" y1="19" x2="19" y2="127" gradientUnits="userSpaceOnUse">
<stop stop-color="white" stop-opacity="0.137593"/>
<stop offset="0.500581" stop-color="#CBCBCB"/>
<stop offset="1" stop-color="white" stop-opacity="0.01"/>
</linearGradient>
<linearGradient id="paint3_linear" x1="40" y1="40" x2="40" y2="107" gradientUnits="userSpaceOnUse">
<stop stop-color="white" stop-opacity="0.137593"/>
<stop offset="0.500581" stop-color="#CBCBCB"/>
<stop offset="1" stop-color="white" stop-opacity="0.01"/>
</linearGradient>
<linearGradient id="paint4_linear" x1="5" y1="5" x2="5" y2="142" gradientUnits="userSpaceOnUse">
<stop stop-color="white" stop-opacity="0.137593"/>
<stop offset="0.500581" stop-color="#CBCBCB"/>
<stop offset="1" stop-color="white" stop-opacity="0.01"/>
</linearGradient>
<linearGradient id="paint5_linear" x1="28" y1="28" x2="28" y2="118" gradientUnits="userSpaceOnUse">
<stop stop-color="white" stop-opacity="0.137593"/>
<stop offset="0.500581" stop-color="#CBCBCB"/>
<stop offset="1" stop-color="white" stop-opacity="0.01"/>
</linearGradient>
<linearGradient id="paint6_linear" x1="62" y1="61" x2="62" y2="85" gradientUnits="userSpaceOnUse">
<stop stop-color="white" stop-opacity="0.137593"/>
<stop offset="0.500581" stop-color="#CBCBCB"/>
<stop offset="1" stop-color="white" stop-opacity="0.01"/>
</linearGradient>
</defs>
</svg>
