<svg width="142" height="26" viewBox="0 0 142 26" fill="none" xmlns="http://www.w3.org/2000/svg">
<path fill-rule="evenodd" clip-rule="evenodd" d="M11.4899 0V2.12219H2.75758V7.45981C3.41414 7.3955 4.59596 7.33119 5.25253 7.33119C7.15657 7.33119 9.06061 7.71704 10.4394 8.68167C11.9495 9.6463 13 11.1897 13 13.5048C13 15.3698 12.3434 16.7846 11.2929 17.8135C9.65152 19.4212 6.89394 20 4.20202 20C2.36364 20 0.853535 19.8714 0 19.7428V0H11.4899ZM2.75758 17.8135C3.34848 17.9421 4.07071 17.9421 4.92424 17.9421C6.56566 17.9421 8.20707 17.4277 9.19192 16.3987C9.84848 15.6913 10.3081 14.7267 10.3081 13.5048C10.3081 11.9614 9.65152 10.9325 8.66667 10.2894C7.61616 9.58199 6.30303 9.32476 4.85859 9.32476C4.26768 9.32476 3.4798 9.38907 2.82323 9.45338V17.8135H2.75758ZM72 0H74.8156V13.5096L80.3129 7.6242H83.933L78.1676 13.7771L84 21H80.514L74.8156 13.9108V21H72V0ZM97 7.4H94.2394V10.0667C93.7136 9.2 92.9906 8.46667 92.0704 7.86667C91.1502 7.26667 90.23 7 89.1784 7C87.5352 7 86.0892 7.66667 84.8404 9.06667C83.5916 10.4667 83 12.0667 83 13.9333C83 15.8667 83.5916 17.5333 84.8404 18.9333C86.0235 20.3333 87.5352 21 89.2441 21C91.216 21 92.9249 20 94.2394 18V20.6667H97V7.4ZM93.0563 10.9333C93.9108 11.8 94.3709 12.8667 94.3709 14.0667C94.3709 15.2667 93.9108 16.2667 93.0563 17.1333C92.2019 18 91.1502 18.4667 89.9671 18.4667C88.784 18.4667 87.7324 18 86.8779 17.1333C86.0235 16.2667 85.6291 15.2 85.6291 13.9333C85.6291 12.8 86.0892 11.8 86.9437 10.9333C87.7981 10.0667 88.784 9.66667 89.9671 9.66667C91.1502 9.66667 92.2019 10.0667 93.0563 10.9333ZM15 7.33333V11.6667H15.0667V26H17.8667V18.8H17.9333C18.7333 20.0667 20.2667 20.8667 22 20.8667C25.0667 20.8667 28 18.5333 28 13.7333C28 9.73333 25.6 7 22.4 7C20.2 7 18.6667 8 17.6667 9.6H17.6V7.33333H15ZM17.9333 16.2C17.8667 15.8667 17.8 15.5333 17.8 15.2V12.9333C17.8 12.6 17.8667 12.2667 17.9333 11.9333C18.4 10.1333 19.9333 8.93333 21.6 8.93333C24.1333 8.93333 25.5333 11.2 25.5333 13.8667C25.5333 16.9333 24.0667 19 21.5333 19C19.8 19 18.4 17.8667 17.9333 16.2ZM59.8156 12.2261V7H57V20H59.8156V14.1206H66.1844V20H69V7H66.1844V12.2261H59.8156ZM109 13V14.2203H105.458V21H104V13H109ZM110.062 15.6686C110.062 14.6923 110.062 13.9112 110 13.1953H111.188L111.25 14.497C111.812 13.5858 112.688 13 113.875 13C115.625 13 117 14.5621 117 16.9053C117 19.6391 115.375 21.0059 113.625 21.0059C112.625 21.0059 111.812 20.5503 111.375 19.8343V24H110.062V15.6686ZM111.375 17.6864C111.375 17.8817 111.375 18.0769 111.438 18.2722C111.688 19.2485 112.5 19.8994 113.438 19.8994C114.875 19.8994 115.688 18.6627 115.688 16.9053C115.688 15.3432 114.938 14.0414 113.5 14.0414C112.562 14.0414 111.75 14.6923 111.5 15.7988C111.438 15.9941 111.438 16.1893 111.438 16.3846V17.6864H111.375ZM120.349 13L122.018 17.4767C122.211 17.9884 122.404 18.564 122.532 19.0116C122.661 18.564 122.853 17.9884 123.046 17.4128L124.523 13H126L123.945 18.3721C122.982 20.9302 122.275 22.2733 121.376 23.1047C120.734 23.6802 120.028 23.936 119.706 24L119.385 22.8488C119.706 22.7209 120.156 22.5291 120.606 22.2093C120.991 21.8895 121.44 21.3779 121.761 20.6744C121.826 20.5465 121.89 20.4186 121.89 20.3547C121.89 20.2907 121.89 20.1628 121.826 19.9709L119 13H120.349ZM134 21V13H127V21H128.515V14.1525H132.485V21H134ZM142 13V21H140.485V14.1525H136.515V21H135V13H142ZM30 12C30 5.41304 35.3478 0 42 0C48.6522 0 54 5.34783 54 12C54 13.9859 53.5139 15.8651 52.6525 17.5214L52.5652 17.6087L52.6304 17.2826L52.7609 17.0217L52.5652 17.2826L52.4348 17.4783L52.3043 17.6739L52.1739 17.8696L52.1087 18.1304L51.9783 18.1957L51.8478 18.3913L51.7174 18.587L51.6522 18.7826L51.587 18.9783L51.3261 19.1739L51.1956 19.4348L51.0652 19.6304L50.8696 19.7609L50.6087 19.8913L50.413 20.0217L50.2174 20.1522L50.0217 20.2826L49.8261 20.413L49.6956 20.6087L49.5652 20.8043V20.9348L49.4348 21.1957L49.2391 21.3913L49.1087 21.6522L49.1616 21.6257C47.1657 23.1152 44.6895 24 42 24C39.7735 24 37.6931 23.3936 35.9104 22.3397L36 22.3696L36.1957 22.4348L36.4565 22.2391L36.3913 21.9783L36.5217 21.7826L36.4565 21.6522L36.3913 21.4565L36.587 21.3261L36.7826 21.2609L37.0435 21.1957L37.1739 21L37.0435 20.7391L36.9783 20.4783L36.913 20.2174L36.7826 20.0217L36.7174 19.7609L36.587 19.5L36.7826 19.3043L37.0435 19.1739L37.3043 19.1087L37.5 18.913L37.6957 18.7174L37.9565 18.587L38.2174 18.5217L38.413 18.3913L38.4783 18.1304L38.6087 17.9348L38.7391 17.7391L38.9348 17.6087V17.3478L38.8043 17.2826L38.6739 17.087H38.413L38.1522 17.1522H37.8913H37.6304L37.3696 16.9565L37.4348 16.7609L37.6957 16.8261L37.9565 16.7609L38.2174 16.6957L38.4783 16.6304H38.7391L39 16.5652L39.1957 16.4348L39.3913 16.3043L39.7826 16.3696L39.9783 16.3043L40.1739 16.2391L40.3043 16.0435L40.4348 15.8478L40.6304 15.6522L40.7609 15.4565L40.6304 15.2609L40.5652 15.0652L40.3696 14.8696L40.2391 14.6087H40.5L40.6957 14.7391L40.8913 14.8043L41.087 14.9348L41.2826 14.8696L41.5435 14.8043H41.8043H42.0652L42.1304 14.8696L42.3261 15L42.5217 15.0652L42.6522 15.2609L42.8478 15.4565L43.0435 15.6522L43.2391 15.587L43.3696 15.7174L43.5 15.8478L43.4348 16.1087V16.3696V16.6304L43.5652 16.7609L43.7609 16.8913V17.1522L43.8913 17.3478L44.0217 17.5435L44.1522 17.7391L44.3478 17.8043L44.4783 17.9348L44.6739 17.7391L44.8696 17.6087L45 17.413L45.1304 17.2174V16.9565V16.6957V16.4348L45.2609 16.2391L45.4565 16.0435L45.6522 15.913L45.913 15.8478L46.1087 15.5217L46.3696 15.3913L46.5 15.1957L46.7609 15.0652L47.0217 14.9348L47.3478 15L47.5435 15.1304L47.6739 15.3261L47.8043 15.5217L47.9348 15.7174H48.1957L48.4565 15.7826L48.587 15.9783V16.2391L48.5217 16.5L48.4565 16.7609L48.5217 17.0217L48.587 17.2826L48.7826 17.413L48.8478 17.6739L48.913 17.9348L48.7174 17.8043L48.4565 17.6739H48.2609H48L47.9348 17.8043L48.1957 18L48.4565 18.0652L48.3913 18.2609L48.6522 18.3913L48.7174 18.587L48.7826 18.7826L48.9783 18.8478L49.2391 18.913H49.4348L49.5652 18.7174L49.6957 18.5217L49.5652 18.2609L49.3043 18.1304L49.1087 17.9348L49.2391 17.8043L49.3696 17.6739L49.3043 17.413L49.1739 17.2174L49.0435 17.0217L48.8478 16.9565L48.6522 16.8261L48.587 16.5652L48.6522 16.3043L48.8478 16.1087L49.0435 16.2391L49.3043 16.3696L49.5652 16.4348L49.7609 16.2391L49.8913 15.9783L50.0217 15.7826L50.087 15.5217V15.3261L50.0217 15.1304L49.9565 14.9348L49.6957 14.7391L49.4348 14.6087V14.3478L49.5 14.1522L49.5652 13.8913L49.8913 13.9565L50.087 13.7609L50.2174 13.5652L50.3478 13.3696L50.5435 13.1739L50.6087 12.913L50.7391 12.7174L50.8043 12.4565L50.8696 12.1957V11.9348V11.6739V11.413V11.1522L50.7391 10.9565L50.5435 10.8261L50.6087 10.7609L50.5435 10.5652L50.4783 10.3696L50.5435 10.1739L50.2826 10.1087L50.0217 10.1739L50.087 9.91304L50.2826 9.84783L50.4783 9.71739L50.6739 9.78261H50.8043L50.9348 10.0435L51.1304 10.2391L51.3261 9.97826L51.2609 9.71739L51.1957 9.45652L51.0652 9.26087L50.9348 9.06522V8.93478V8.67391L50.8043 8.47826V8.21739L50.9348 8.15217V7.8913L50.8696 7.63043V7.36957L50.7391 7.04348L50.6739 6.84783L50.5435 6.65217L50.413 6.45652L50.3478 6.19565L50.5435 6.32609L50.6739 6.52174L50.8043 6.71739L51 6.84783L50.9348 6.65217L50.8043 6.52174L50.6739 6.32609L50.5435 6.13043L50.3478 6L50.2174 5.80435L50.0217 5.73913V5.93478L49.7609 5.86957L49.6957 6.06522L49.5652 5.86957L49.4348 5.67391L49.3696 5.41304L49.3043 5.15217V4.8913L49.2391 4.63043V4.36957L49.3696 4.30435L49.2391 4.1087L49.1087 3.91304V3.71739L48.9783 3.45652L49.1739 3.58696L49.3043 3.78261L49.4348 3.97826L49.5652 4.17391L49.7609 4.36957L49.9565 4.56522L50.2826 4.69565L50.6087 4.82609L50.413 4.63043L50.2174 4.43478L49.9565 4.17391L49.7609 3.97826L49.5652 3.78261L49.4348 3.58696L49.2391 3.45652L49.1087 3.32609L48.9783 3.13043L48.8478 2.93478L48.6522 2.73913L48.4565 2.47826L48.3261 2.28261L48.0652 2.21739L47.8043 2.08696L47.6087 1.8913L47.413 1.76087L47.3478 1.63043L47.2826 1.8913L47.3478 2.15217L47.4783 2.34783L47.6739 2.54348L47.5435 2.80435L47.413 2.86957L47.4783 3L47.3478 3.06522L47.413 3.19565L47.2174 3.26087L47.087 3.3913L47.1522 3.45652L47.0217 3.65217L46.9565 3.91304L46.8913 4.17391H46.6304L46.3696 4.23913L46.1739 4.36957L45.9783 4.5H45.8478L45.7174 4.69565L45.5217 4.82609L45.4565 4.63043L45.3913 4.43478H45.1957H45L44.8043 4.5L44.6087 4.82609L44.3478 4.8913H44.0217L43.8913 5.02174L43.6304 5.15217L43.5652 5.34783L43.4348 5.54348H43.3696L43.5 5.73913H43.2391L42.9783 5.80435L42.7174 5.73913V5.93478V6.13043L42.587 5.80435L42.4565 5.54348L42.2609 5.80435L42.1957 6.06522L42.1304 6.32609H41.9348L41.6739 6.19565H41.4783L41.2826 6.26087H41.0217L40.8261 6.32609H40.5652H40.3043L39.9783 6.3913L39.7174 6.19565L39.5217 6.52174H39.3261L39.1304 6.58696L38.9348 6.71739H38.6739L38.5435 6.52174L38.4783 6.32609L38.6087 6.19565L38.8043 6.32609L39.0652 6.3913H39.3261V6.13043L39.1304 6L39 5.80435L38.8043 5.67391L38.6739 5.6087L38.5435 5.34783L38.3478 5.28261H38.087H37.8913L37.6957 5.34783H37.5L37.1739 5.47826H36.913L36.6522 5.54348L36.3913 5.67391H36.1304H35.8696L35.6739 5.86957L35.4783 6.06522V6.19565L35.6739 6.45652L35.6087 6.65217L35.5435 6.84783V7.04348L35.7391 7.17391L36 7.04348L36.2609 6.91304L36.4565 6.71739H36.5217V6.52174L36.587 6.26087L36.7826 6.13043L36.9783 6L37.2391 5.93478H37.4348L37.3696 6.26087L37.1739 6.32609L36.9783 6.3913L36.8478 6.71739L36.913 6.91304L36.8478 7.1087L36.7174 7.30435L36.5217 7.23913L36.3913 7.36957L36.2609 7.56522L36 7.5H35.6739L35.4783 7.36957L35.3478 7.23913L35.2174 7.1087L35.413 7.04348V6.78261L35.5435 6.52174L35.3478 6.65217L35.1522 6.84783L34.9565 7.04348L34.8261 6.91304L34.6304 6.97826L34.4348 6.91304L34.2391 6.97826L34.0435 7.1087H33.7826L33.6522 7.04348H33.4565L33.3913 7.30435L33.3261 7.5L33.1957 7.69565L33 7.82609L32.8043 7.69565L32.6087 7.43478L32.413 7.63043L32.2174 7.82609L32.087 8.02174L32.0217 8.21739L31.9565 8.41304L32.0217 8.67391L32.087 8.93478L32.2826 9H32.4783L32.6739 8.86957L32.8696 8.67391H33.0652L33.3913 8.54348L33.587 8.67391L33.7826 8.73913L33.9783 8.80435V9L34.0435 9.26087L34.1087 9.52174L34.2391 9.71739L34.3696 9.97826L34.1087 10.1739V10.4348L34.3043 10.3043L34.4348 10.1087L34.5 10.2391V9.97826L34.4348 9.78261L34.3696 9.58696L34.2391 9.32609L34.3043 9L34.5 9.19565L34.5652 9.45652L34.6957 9.71739L34.7609 10.0435L34.5652 10.1739L34.6304 10.3696L34.6957 10.5652L34.6304 10.8261V11.1522L34.8261 11.2174L34.8913 11.1522L35.0217 11.2174L34.9565 10.9565L35.087 11.0217V10.7609V10.5L35.2826 10.3696L35.4783 10.5652L35.7391 10.6304L35.6087 10.7609L35.5435 11.0217V11.2826V11.5435L35.7391 11.6087L35.9348 11.6739L36.1304 11.7391L36.3261 11.8696H36.587V12.1304L36.5217 12.3913L36.3261 12.5217L36.1957 12.7174L36 12.6522L35.6739 12.587H35.413L35.2174 12.4565L35.0217 12.3261L34.8261 12.0652L34.6304 11.8696L34.4348 11.7391H34.2391L34.0435 12L33.913 11.8043L33.7826 11.6087L33.587 11.413L33.5217 11.1522L33.3261 11.0217L33.1957 10.7609L33.2609 10.5L33.3261 10.2391V9.97826L33.1304 9.84783L32.9348 9.71739L32.7391 9.52174L32.5435 9.32609L32.2826 9.26087H32.087L32.0217 8.93478L31.7609 9.06522H31.4348L31.3043 9.26087L31.1087 9.45652H30.8478L30.6522 9.65217L30.5217 9.91304L30.4565 10.1739L30.3913 10.4348L30.2609 10.7609L30.1957 10.9565L30.1304 11.2174V11.413V11.6739V11.9348L30.1957 12.1957V12.4565L30.1304 12.7174V12.9783V13.2391L30.1957 13.5L30.2609 13.7609L30.3261 14.0217L30.4565 14.2826L30.6522 14.4783L30.7826 14.7391L30.9783 14.9348L31.2391 15L31.3696 15.1957L31.4348 15.3913L31.5652 15.587L31.7609 15.7826L31.8913 15.9783L31.9565 16.2391V16.5L31.8913 16.6304L31.9565 16.8913L32.087 17.1522L32.1522 17.413L32.2826 17.6087L32.3478 17.8696L32.4783 18.0652L32.6087 18.2609L32.7391 18.4565V18.6522V18.8478L32.6739 18.9783L32.8043 19.2391V19.5L33 19.6957L33.1957 19.8261L33.3261 20.0217L33.4565 20.2174L33.587 20.413L33.7174 20.6087L33.8411 20.7943C31.4758 18.5965 30 15.4602 30 12ZM37.2391 1.17391L37.0435 1.23913L36.8478 1.36957L37.1087 1.30435L37.3696 1.17391L37.6304 1.1087L37.9565 1.04348L38.2826 0.913043L38.4783 0.847826H38.6739L38.9348 0.782609L39.1957 0.717391L39.4565 0.652174L39.2609 0.782609L39.3261 0.847826L39.1957 0.978261L39.3913 1.17391L39.6522 1.04348L39.913 0.978261L40.1739 0.782609L40.4348 0.717391L40.6304 0.521739H40.3043L40.0435 0.586957L40.1739 0.652174L39.9783 0.717391L39.913 0.586957L39.9783 0.521739H39.7826L39.9783 0.456522H40.2391L40.5 0.326087H40.5652H40.6304H40.7609L40.9565 0.26087H40.6957L40.8261 0.195652L40.5652 0.26087L40.2391 0.326087L39.9783 0.391304L39.7174 0.456522H39.5217H39.3261L39.587 0.391304H39.8478L40.0435 0.326087L40.2391 0.26087L40.5 0.195652L40.7609 0.130435H40.9565H41.2174H41.4783H41.6087H41.6739L41.9348 0.0652174L42.1957 0.130435H42.2609H42.5217L42.587 0.195652H42.5217H42.4565H42.3261H42.2609L42.4565 0.26087H42.2609L42 0.326087H42.2609L42.5217 0.26087H42.7174L42.913 0.326087H43.1087L43.3696 0.391304H43.6304L43.8261 0.326087H44.087L44.3478 0.391304L44.5435 0.456522L44.8043 0.521739L45.0652 0.652174L45.2609 0.782609L45.4565 0.847826L45.7174 0.978261L45.913 1.04348L46.1087 1.1087L46.3043 1.23913H46.5652L46.8261 1.30435L47.087 1.43478L46.8261 1.23913L47.087 1.30435L47.2826 1.43478L47.4783 1.56522L47.413 1.43478L47.1522 1.30435L46.9565 1.17391L46.7609 1.1087L46.5 0.978261L46.2391 0.913043L46.0435 0.782609L45.8478 0.717391L45.6522 0.652174L45.3913 0.586957L45.1957 0.456522L44.9348 0.391304H44.6739L44.413 0.326087H44.1522L43.8913 0.26087H43.6304L43.3696 0.195652L43.2391 0.0652174H42.9783H42.7174H42.4565H42.1957H41.9348H41.6739H41.413H41.1522H40.8913L40.6304 0.130435H40.3696L40.1087 0.195652H39.8478L39.587 0.26087V0.326087H39.3261L39.1304 0.391304H39.0652L38.8696 0.456522L38.6087 0.521739L38.413 0.586957H38.6087L38.8043 0.521739L38.5435 0.652174H38.6739L38.413 0.717391L38.1522 0.847826H38.0217H37.7609L37.9565 0.717391L37.7609 0.782609L37.5652 0.847826L37.3043 0.978261L37.1087 1.04348L36.913 1.17391L36.7174 1.36957L36.9783 1.23913L37.2391 1.17391ZM39.3261 0.456522L39.0652 0.521739L39.2609 0.456522H39.3261ZM35.37 2.04327L35.2826 2.08696L35.233 2.1366C35.1408 2.20148 35.0487 2.27104 34.9565 2.34783L35.087 2.28261L35.233 2.1366C35.2786 2.10445 35.3243 2.07344 35.37 2.04327ZM35.37 2.04327L35.5435 1.95652L35.7391 1.82609L36 1.69565L36.2609 1.63043L36.3913 1.43478L36.1957 1.56522H36.1304C36 1.65217 35.8696 1.73188 35.7391 1.81159L35.739 1.81168C35.616 1.88685 35.493 1.96202 35.37 2.04327ZM42 0.130435H41.8696L41.6087 0.195652H41.7391L42 0.130435ZM34.0435 6.3913L34.2391 6.26087L34.3043 6.06522L34.5 5.86957V5.67391L34.6957 5.6087L34.8913 5.54348L34.8261 5.67391L34.6957 5.86957L34.5 6.06522L34.3696 6.32609L34.3043 6.58696L34.1739 6.84783L33.913 6.91304H33.6522V6.71739L33.8478 6.52174L34.0435 6.3913ZM33.9783 6.13043L33.7826 6.19565L33.6522 6.32609V6.13043L33.8478 6L34.0435 5.86957L34.2391 5.80435L34.1739 6L33.9783 6.13043ZM51.9783 16.3696L51.8804 16.4185L51.913 16.3696L52.0435 16.1087L51.9783 16.3696ZM51.5217 16.7935V16.5652L51.4565 16.3696L51.587 16.2391L51.6522 16.0435L51.4565 15.913H51.2609L51.1957 16.1739L51.0652 16.3696L50.9348 16.5652L50.7391 16.8261L50.6087 17.0217L50.413 17.1522L50.2826 17.2826L50.1522 17.4783L50.087 17.6739L50.2174 17.8696L50.4783 17.9348L50.7391 17.8696H51L51.0652 17.6739L51.1957 17.4783L51.2609 17.2174L51.3913 17.0217L51.4435 16.9435L51.3913 17.1522L51.3261 17.413L51.3913 17.6087L51.587 17.5435L51.7174 17.3478L51.7826 17.087V16.8261L51.6522 16.7609L51.7826 16.5652L51.8804 16.4185L51.7174 16.5L51.587 16.6957L51.5217 16.7935ZM51.5217 16.7935L51.4565 16.8913L51.4435 16.9435L51.5217 16.8261V16.7935ZM43.6957 4.1087L43.8913 4.04348L44.0217 4.17391L44.1522 4.36957H43.9565H43.6957V4.1087ZM41.413 5.34783L41.6087 5.28261L41.8043 5.15217H42.0652V5.02174L41.8043 4.95652L41.5435 5.02174L41.3478 5.15217L41.087 5.21739L40.8913 5.34783L40.8261 5.54348L40.7609 5.80435L40.9565 5.86957L41.087 6L41.1522 5.86957L41.087 5.67391L41.2826 5.47826L41.413 5.34783ZM35.2174 3.71739L35.087 3.91304V4.1087H35.2826H35.4783L35.6087 3.78261L35.413 3.58696L35.2174 3.71739ZM35.8043 2.08696L36 1.95652H36.1957L36.3913 1.82609L36.6522 1.76087L36.7174 1.82609L36.913 1.69565L37.1087 1.63043L37.1739 1.56522L37.4348 1.43478L37.6304 1.30435L37.8261 1.23913L38.0217 1.17391L38.2174 1.1087L38.2826 1.04348L38.4783 0.978261L38.6739 0.913043H38.8696H39.0652L38.9348 0.978261V1.17391L38.8043 1.30435L39 1.36957L38.8696 1.63043V1.69565L38.9348 1.76087L38.6739 2.02174V2.28261H38.413V2.47826V2.67391H38.2174H37.9565L37.6957 2.6087V2.67391L37.5 2.73913L37.3043 2.80435L37.0435 2.93478L36.7826 3H36.587L36.3913 3.13043L36.1957 3.19565H36L35.9348 3L35.8043 2.80435L35.5435 2.73913L35.6087 2.6087H35.413L35.2174 2.73913L35.0217 2.80435L35.1522 2.54348L35.413 2.34783L35.6087 2.21739L35.8043 2.08696ZM39.1304 3.91304V3.71739L38.9348 3.65217L38.6739 3.71739L38.5435 3.91304L38.4783 4.1087H38.8043L39.0652 3.97826L39.1304 4.04348L39.4565 3.97826L39.2609 3.78261L39.1304 3.91304ZM44.5435 4.30435L44.2174 4.17391L44.2826 4.36957L44.5435 4.30435ZM51.6522 17.8696L51.587 18.0652L51.4565 18.2609L51.3261 18.3913L51.3913 18.1957L51.5217 18L51.6522 17.8696ZM52.1087 15.2609L52.3043 15.3261L52.3696 15.0652V14.8043V14.6087H52.3043L52.1739 14.8696L52.1087 15.1304L51.913 15.3261L52.1087 15.2609ZM52.9565 15.587L53.1522 15.7174L53.2174 15.4565L53.3478 15.1957L53.4783 14.9348L53.5435 14.8696L53.4783 15.1304V15.1957M52.9565 15.587L52.8261 15.7826ZM52.8261 15.7826L52.7609 15.9783ZM52.7609 15.9783L52.8261 16.1739ZM52.8261 16.1739L53.087 15.9783ZM53.087 15.9783V16.1087ZM53.087 16.1087H53.1522ZM53.1522 16.1087L53.2826 15.8478ZM53.2826 15.8478L53.3478 15.587ZM53.3478 15.587L53.413 15.4565ZM53.413 15.4565C53.413 15.4239 53.4293 15.375 53.4457 15.3261ZM51.2609 7.36957L51.3913 7.56522L51.4565 7.36957V7.17391V6.97826L51.2609 6.84783H51.0652L51.1957 7.04348L51.2609 7.36957ZM44.9348 17.6087L45.1304 17.5435L45.2609 17.7391V18L45.1957 18.1957L44.9348 18.2609V18.1957L44.8043 18V17.8043L44.9348 17.6087ZM51.3261 12.2609H51.2609L51.1956 12.5217L51.2609 12.7826H51.3261L51.3913 12.5217L51.3261 12.2609ZM49.8913 14.413L50.0217 14.2174L50.2174 14.1522V14.3478L50.1522 14.5435L49.8913 14.413ZM49.9565 18.7174H49.6957L49.5 18.913H49.6957H49.8913L50.087 18.8478L50.3478 18.7826L50.6087 18.6522L50.8043 18.4565H50.4783L50.2174 18.6522L49.9565 18.7174ZM51.8478 8.54348L51.7826 8.28261L51.6522 7.95652L51.587 7.69565L51.6522 7.63043L51.7826 7.8913L51.8478 8.15217V8.34783L51.913 8.6087V8.86957V9.06522L51.9783 9.26087V9.52174L51.8478 9.65217L51.587 9.71739L51.6522 9.45652L51.7174 9.26087L51.8478 9.06522V8.80435V8.54348ZM51.9783 14.6087H51.913V14.8043L52.0435 14.8696L51.9783 14.6087ZM51.587 15.0652L51.4565 15.2609L51.3261 15.4565L51.3913 15.1957L51.587 15.0652ZM51.4565 14.2826L51.7174 14.413L52.0435 14.2826L51.913 14.0217L51.7826 13.7609L51.8478 13.5652L51.7826 13.3696L51.587 13.4348L51.5217 13.6957L51.4565 14.0217V14.2826ZM51.587 9.78261H51.7826L51.7174 10.1087L51.5217 10.0435L51.587 9.78261ZM52.4348 16.5L52.5652 16.3696L52.6304 16.1739L52.4348 16.3696V16.5ZM33.6522 9.06522L33.7174 8.93478V9.06522H33.6522ZM33.7826 10.3043L33.8478 10.5L34.0435 10.3043L33.9783 10.1087L33.7826 10.1739L33.7174 10.0435L33.6522 10.1739L33.7826 10.3043ZM35.0217 11.5435V11.413L35.1522 11.5435H35.0217ZM33.587 9.26087L33.4565 9.32609V9.52174V9.71739L33.587 9.52174V9.26087ZM46.5652 3.52174L46.2391 3.3913L46.3043 3.26087H46.5652V3.52174ZM39.7826 14.8043L39.587 14.7391H39.3261L39.1957 14.5435L39.0652 14.3478L38.9348 14.1522L38.8043 13.9565L38.6739 13.7609L38.8043 13.6957L39 13.6304L39.0652 13.8261L39.1304 14.0217L39.2609 14.1522L39.3913 14.3478H39.6522L39.913 14.413L39.7826 14.8043ZM39.1957 10.5L39.1304 10.6957V10.9565L39.1957 11.2174L39.2609 11.4783L39.0652 11.6087L39.1304 11.8696L39.2609 12.1304L39.5217 12.1957L39.7174 12.1304V11.9348L39.6522 11.7391L39.587 11.5435L39.5217 11.3478L39.4565 11.1522V10.9565V10.7609L39.6522 10.6304L39.8478 10.4348L39.6522 10.5L39.4565 10.4348L39.1957 10.5ZM37.8261 11.0217H37.5L37.3043 10.8913L37.0435 10.8261L36.8478 10.7609L36.6522 10.6957L36.3913 10.6304L36.1304 10.5652H35.8696L36.0652 10.4348L36.1957 10.2391L36.2609 10.0435L36.3913 9.84783H36.587L36.7174 9.91304L36.7826 10.1087L36.8478 10.3043L36.7174 10.3696L36.913 10.5652L37.2391 10.4348L36.9783 10.3043L37.1739 10.1739L37.4348 10.1087L37.6304 10.0435L37.5652 10.2391L37.3696 10.3696L37.5 10.5652L37.6304 10.6957L37.7609 10.8913L37.8261 11.0217ZM36.8478 15.913L36.9783 16.2391L37.3696 16.5652L37.3043 16.3696V16.1087V15.8478L37.1739 15.5217L37.0435 15.3261L36.913 15.1304L36.7826 14.9348L36.6522 14.7391L36.587 14.4783L36.5217 14.2174V13.9565L36.3913 13.7609L36.1957 13.6304L36 13.5652L36.0652 13.7609V13.9565L36.1304 14.2174L36.1957 14.413L36.2609 14.6087L36.4565 14.6739L36.587 14.8696L36.4565 15.0652L36.3913 15.3261L36.5217 15.5217L36.6522 15.7174L36.8478 15.913ZM35.413 18.7174L35.2174 18.4565L35.3478 18.5217V18.4565L35.4783 18.587L35.413 18.7174ZM53.087 16.4348L52.9565 16.6304V16.5652L53.087 16.4348ZM53.087 16.4348L53.1522 16.2391H53.2174L53.087 16.4348ZM52.9565 16.7609V16.6304L52.8261 16.8261L52.7609 17.087L52.6957 17.2826L52.7609 17.1522L52.9565 16.7609ZM38.6087 20.9348H38.8043L38.8696 21.1957L39.0652 21.3913L39 21.587V21.8478L38.8043 21.9783L38.6739 22.1087L38.8043 22.1739L38.6739 22.3043L38.413 22.3696L38.1522 22.3043L37.9565 22.1739L37.8261 22.0435V21.7826H37.9565L37.8261 21.5217L38.0217 21.2609H38.2826L38.4783 21.1304L38.6087 20.9348Z" fill="white"/>
</svg>
