<svg width="89" height="89" viewBox="0 0 89 89" fill="none" xmlns="http://www.w3.org/2000/svg">
<g opacity="0.5">
<path fill-rule="evenodd" clip-rule="evenodd" d="M45 84C66.5391 84 84 66.5391 84 45C84 23.4609 66.5391 6 45 6C23.4609 6 6 23.4609 6 45C6 66.5391 23.4609 84 45 84Z" stroke="url(#paint0_linear)"/>
<path fill-rule="evenodd" clip-rule="evenodd" d="M44.5 88C68.5244 88 88 68.5244 88 44.5C88 20.4756 68.5244 1 44.5 1C20.4756 1 1 20.4756 1 44.5C1 68.5244 20.4756 88 44.5 88Z" stroke="url(#paint1_linear)"/>
<path fill-rule="evenodd" clip-rule="evenodd" d="M45 75C61.5685 75 75 61.5685 75 45C75 28.4315 61.5685 15 45 15C28.4315 15 15 28.4315 15 45C15 61.5685 28.4315 75 45 75Z" stroke="url(#paint2_linear)"/>
<path fill-rule="evenodd" clip-rule="evenodd" d="M44.5 62C54.165 62 62 54.165 62 44.5C62 34.835 54.165 27 44.5 27C34.835 27 27 34.835 27 44.5C27 54.165 34.835 62 44.5 62Z" stroke="url(#paint3_linear)"/>
<path fill-rule="evenodd" clip-rule="evenodd" d="M45 50C47.7614 50 50 47.7614 50 45C50 42.2386 47.7614 40 45 40C42.2386 40 40 42.2386 40 45C40 47.7614 42.2386 50 45 50Z" stroke="url(#paint4_linear)"/>
</g>
<defs>
<linearGradient id="paint0_linear" x1="6" y1="6" x2="6" y2="84" gradientUnits="userSpaceOnUse">
<stop stop-color="white" stop-opacity="0.137593"/>
<stop offset="0.500581" stop-color="#CBCBCB"/>
<stop offset="1" stop-color="white" stop-opacity="0.01"/>
</linearGradient>
<linearGradient id="paint1_linear" x1="1" y1="1" x2="1" y2="88" gradientUnits="userSpaceOnUse">
<stop stop-color="white" stop-opacity="0.137593"/>
<stop offset="0.500581" stop-color="#CBCBCB"/>
<stop offset="1" stop-color="white" stop-opacity="0.01"/>
</linearGradient>
<linearGradient id="paint2_linear" x1="15" y1="15" x2="15" y2="75" gradientUnits="userSpaceOnUse">
<stop stop-color="white" stop-opacity="0.137593"/>
<stop offset="0.500581" stop-color="#CBCBCB"/>
<stop offset="1" stop-color="white" stop-opacity="0.01"/>
</linearGradient>
<linearGradient id="paint3_linear" x1="27" y1="27" x2="27" y2="62" gradientUnits="userSpaceOnUse">
<stop stop-color="white" stop-opacity="0.137593"/>
<stop offset="0.500581" stop-color="#CBCBCB"/>
<stop offset="1" stop-color="white" stop-opacity="0.01"/>
</linearGradient>
<linearGradient id="paint4_linear" x1="40" y1="40" x2="40" y2="50" gradientUnits="userSpaceOnUse">
<stop stop-color="white" stop-opacity="0.137593"/>
<stop offset="0.500581" stop-color="#CBCBCB"/>
<stop offset="1" stop-color="white" stop-opacity="0.01"/>
</linearGradient>
</defs>
</svg>
