<svg width="147" height="147" viewBox="0 0 147 147" fill="none" xmlns="http://www.w3.org/2000/svg">
<g opacity="0.5">
<path fill-rule="evenodd" clip-rule="evenodd" d="M73.5 146C113.541 146 146 113.541 146 73.5C146 33.4594 113.541 1 73.5 1C33.4594 1 1 33.4594 1 73.5C1 113.541 33.4594 146 73.5 146Z" stroke="url(#paint0_linear)"/>
<path fill-rule="evenodd" clip-rule="evenodd" d="M73.5 137C108.57 137 137 108.57 137 73.5C137 38.4299 108.57 10 73.5 10C38.4299 10 10 38.4299 10 73.5C10 108.57 38.4299 137 73.5 137Z" stroke="url(#paint1_linear)"/>
<path fill-rule="evenodd" clip-rule="evenodd" d="M73.5 128C103.6 128 128 103.6 128 73.5C128 43.4005 103.6 19 73.5 19C43.4005 19 19 43.4005 19 73.5C19 103.6 43.4005 128 73.5 128Z" stroke="url(#paint2_linear)"/>
<path fill-rule="evenodd" clip-rule="evenodd" d="M74 108C92.7777 108 108 92.7777 108 74C108 55.2223 92.7777 40 74 40C55.2223 40 40 55.2223 40 74C40 92.7777 55.2223 108 74 108Z" stroke="url(#paint3_linear)"/>
<path fill-rule="evenodd" clip-rule="evenodd" d="M74 143C112.108 143 143 112.108 143 74C143 35.8924 112.108 5 74 5C35.8924 5 5 35.8924 5 74C5 112.108 35.8924 143 74 143Z" stroke="url(#paint4_linear)"/>
<path fill-rule="evenodd" clip-rule="evenodd" d="M73.5 119C98.629 119 119 98.629 119 73.5C119 48.371 98.629 28 73.5 28C48.371 28 28 48.371 28 73.5C28 98.629 48.371 119 73.5 119Z" stroke="url(#paint5_linear)"/>
<path fill-rule="evenodd" clip-rule="evenodd" d="M74 86C80.6274 86 86 80.6274 86 74C86 67.3726 80.6274 62 74 62C67.3726 62 62 67.3726 62 74C62 80.6274 67.3726 86 74 86Z" stroke="url(#paint6_linear)"/>
</g>
<defs>
<linearGradient id="paint0_linear" x1="1" y1="1" x2="1" y2="146" gradientUnits="userSpaceOnUse">
<stop stop-color="white" stop-opacity="0.137593"/>
<stop offset="0.500581" stop-color="#CBCBCB"/>
<stop offset="1" stop-color="white" stop-opacity="0.01"/>
</linearGradient>
<linearGradient id="paint1_linear" x1="10" y1="10" x2="10" y2="137" gradientUnits="userSpaceOnUse">
<stop stop-color="white" stop-opacity="0.137593"/>
<stop offset="0.500581" stop-color="#CBCBCB"/>
<stop offset="1" stop-color="white" stop-opacity="0.01"/>
</linearGradient>
<linearGradient id="paint2_linear" x1="19" y1="19" x2="19" y2="128" gradientUnits="userSpaceOnUse">
<stop stop-color="white" stop-opacity="0.137593"/>
<stop offset="0.500581" stop-color="#CBCBCB"/>
<stop offset="1" stop-color="white" stop-opacity="0.01"/>
</linearGradient>
<linearGradient id="paint3_linear" x1="40" y1="40" x2="40" y2="108" gradientUnits="userSpaceOnUse">
<stop stop-color="white" stop-opacity="0.137593"/>
<stop offset="0.500581" stop-color="#CBCBCB"/>
<stop offset="1" stop-color="white" stop-opacity="0.01"/>
</linearGradient>
<linearGradient id="paint4_linear" x1="5" y1="5" x2="5" y2="143" gradientUnits="userSpaceOnUse">
<stop stop-color="white" stop-opacity="0.137593"/>
<stop offset="0.500581" stop-color="#CBCBCB"/>
<stop offset="1" stop-color="white" stop-opacity="0.01"/>
</linearGradient>
<linearGradient id="paint5_linear" x1="28" y1="28" x2="28" y2="119" gradientUnits="userSpaceOnUse">
<stop stop-color="white" stop-opacity="0.137593"/>
<stop offset="0.500581" stop-color="#CBCBCB"/>
<stop offset="1" stop-color="white" stop-opacity="0.01"/>
</linearGradient>
<linearGradient id="paint6_linear" x1="62" y1="62" x2="62" y2="86" gradientUnits="userSpaceOnUse">
<stop stop-color="white" stop-opacity="0.137593"/>
<stop offset="0.500581" stop-color="#CBCBCB"/>
<stop offset="1" stop-color="white" stop-opacity="0.01"/>
</linearGradient>
</defs>
</svg>
