<svg width="68" height="67" viewBox="0 0 68 67" fill="none" xmlns="http://www.w3.org/2000/svg">
<g opacity="0.5">
<path fill-rule="evenodd" clip-rule="evenodd" d="M34 66C52.2254 66 67 51.4493 67 33.5C67 15.5507 52.2254 1 34 1C15.7746 1 1 15.5507 1 33.5C1 51.4493 15.7746 66 34 66Z" stroke="url(#paint0_linear)"/>
<path fill-rule="evenodd" clip-rule="evenodd" d="M34 59C48.3594 59 60 47.5833 60 33.5C60 19.4167 48.3594 8 34 8C19.6406 8 8 19.4167 8 33.5C8 47.5833 19.6406 59 34 59Z" stroke="url(#paint1_linear)"/>
<path fill-rule="evenodd" clip-rule="evenodd" d="M34.5 44C40.299 44 45 39.5228 45 34C45 28.4772 40.299 24 34.5 24C28.701 24 24 28.4772 24 34C24 39.5228 28.701 44 34.5 44Z" stroke="url(#paint2_linear)"/>
</g>
<defs>
<linearGradient id="paint0_linear" x1="1" y1="1" x2="1" y2="66" gradientUnits="userSpaceOnUse">
<stop stop-color="white" stop-opacity="0.137593"/>
<stop offset="0.500581" stop-color="#CBCBCB"/>
<stop offset="1" stop-color="white" stop-opacity="0.01"/>
</linearGradient>
<linearGradient id="paint1_linear" x1="8" y1="8" x2="8" y2="59" gradientUnits="userSpaceOnUse">
<stop stop-color="white" stop-opacity="0.137593"/>
<stop offset="0.500581" stop-color="#CBCBCB"/>
<stop offset="1" stop-color="white" stop-opacity="0.01"/>
</linearGradient>
<linearGradient id="paint2_linear" x1="24" y1="24" x2="24" y2="44" gradientUnits="userSpaceOnUse">
<stop stop-color="white" stop-opacity="0.137593"/>
<stop offset="0.500581" stop-color="#CBCBCB"/>
<stop offset="1" stop-color="white" stop-opacity="0.01"/>
</linearGradient>
</defs>
</svg>
