<?xml version="1.0" encoding="utf-8"?><svg xmlns="http://www.w3.org/2000/svg" xmlns:xlink="http://www.w3.org/1999/xlink">
<symbol viewBox="0 0 17 17" fill-rule="evenodd" clip-rule="evenodd" stroke-linejoin="round" stroke-miterlimit="1.414" id="search" xmlns="http://www.w3.org/2000/svg"><path d="M6.061 0A6.066 6.066 0 0 0 0 6.06a6.067 6.067 0 0 0 6.061 6.061 6.032 6.032 0 0 0 4.006-1.519l.67.669a1.707 1.707 0 0 0 .236 2.111l2.339 2.34a1.709 1.709 0 0 0 2.41 0 1.71 1.71 0 0 0 .001-2.411l-2.34-2.34a1.715 1.715 0 0 0-2.111-.236l-.669-.669a6.033 6.033 0 0 0 1.518-4.006A6.066 6.066 0 0 0 6.061 0zm0 .758a5.296 5.296 0 0 1 5.302 5.302 5.297 5.297 0 0 1-5.302 5.303A5.297 5.297 0 0 1 .758 6.06 5.296 5.296 0 0 1 6.061.758zm6.117 10.468c.241 0 .482.094.67.281l2.339 2.34a.936.936 0 0 1-.001 1.339.935.935 0 0 1-1.338 0l-2.339-2.339a.935.935 0 0 1 0-1.338v-.001a.94.94 0 0 1 .669-.282z" fill-rule="nonzero"/></symbol></svg>