<svg width="37" height="36" viewBox="0 0 37 36" fill="none" xmlns="http://www.w3.org/2000/svg">
<g opacity="0.5">
<path fill-rule="evenodd" clip-rule="evenodd" d="M18.5 35C28.165 35 36 27.3888 36 18C36 8.61116 28.165 1 18.5 1C8.83502 1 1 8.61116 1 18C1 27.3888 8.83502 35 18.5 35Z" stroke="url(#paint0_linear)"/>
<path fill-rule="evenodd" clip-rule="evenodd" d="M19 32C26.732 32 33 25.9558 33 18.5C33 11.0442 26.732 5 19 5C11.268 5 5 11.0442 5 18.5C5 25.9558 11.268 32 19 32Z" stroke="url(#paint1_linear)"/>
<path fill-rule="evenodd" clip-rule="evenodd" d="M18.5 26C22.6421 26 26 22.6421 26 18.5C26 14.3579 22.6421 11 18.5 11C14.3579 11 11 14.3579 11 18.5C11 22.6421 14.3579 26 18.5 26Z" stroke="url(#paint2_linear)"/>
<path fill-rule="evenodd" clip-rule="evenodd" d="M19 21C20.6569 21 22 19.6569 22 18C22 16.3431 20.6569 15 19 15C17.3431 15 16 16.3431 16 18C16 19.6569 17.3431 21 19 21Z" stroke="url(#paint3_linear)"/>
</g>
<defs>
<linearGradient id="paint0_linear" x1="1" y1="1" x2="1" y2="35" gradientUnits="userSpaceOnUse">
<stop stop-color="white" stop-opacity="0.137593"/>
<stop offset="0.500581" stop-color="#CBCBCB"/>
<stop offset="1" stop-color="white" stop-opacity="0.01"/>
</linearGradient>
<linearGradient id="paint1_linear" x1="5" y1="5" x2="5" y2="32" gradientUnits="userSpaceOnUse">
<stop stop-color="white" stop-opacity="0.137593"/>
<stop offset="0.500581" stop-color="#CBCBCB"/>
<stop offset="1" stop-color="white" stop-opacity="0.01"/>
</linearGradient>
<linearGradient id="paint2_linear" x1="11" y1="11" x2="11" y2="26" gradientUnits="userSpaceOnUse">
<stop stop-color="white" stop-opacity="0.137593"/>
<stop offset="0.500581" stop-color="#CBCBCB"/>
<stop offset="1" stop-color="white" stop-opacity="0.01"/>
</linearGradient>
<linearGradient id="paint3_linear" x1="16" y1="15" x2="16" y2="21" gradientUnits="userSpaceOnUse">
<stop stop-color="white" stop-opacity="0.137593"/>
<stop offset="0.500581" stop-color="#CBCBCB"/>
<stop offset="1" stop-color="white" stop-opacity="0.01"/>
</linearGradient>
</defs>
</svg>
