<svg width="62" height="62" viewBox="0 0 62 62" fill="none" xmlns="http://www.w3.org/2000/svg">
<g opacity="0.5">
<path fill-rule="evenodd" clip-rule="evenodd" d="M31.5 58C46.1355 58 58 46.1355 58 31.5C58 16.8645 46.1355 5 31.5 5C16.8645 5 5 16.8645 5 31.5C5 46.1355 16.8645 58 31.5 58Z" stroke="url(#paint0_linear)"/>
<path fill-rule="evenodd" clip-rule="evenodd" d="M31 61C47.5685 61 61 47.5685 61 31C61 14.4315 47.5685 1 31 1C14.4315 1 1 14.4315 1 31C1 47.5685 14.4315 61 31 61Z" stroke="url(#paint1_linear)"/>
<path fill-rule="evenodd" clip-rule="evenodd" d="M31 52C42.598 52 52 42.598 52 31C52 19.402 42.598 10 31 10C19.402 10 10 19.402 10 31C10 42.598 19.402 52 31 52Z" stroke="url(#paint2_linear)"/>
<path fill-rule="evenodd" clip-rule="evenodd" d="M31 43C37.6274 43 43 37.6274 43 31C43 24.3726 37.6274 19 31 19C24.3726 19 19 24.3726 19 31C19 37.6274 24.3726 43 31 43Z" stroke="url(#paint3_linear)"/>
<path fill-rule="evenodd" clip-rule="evenodd" d="M31 35C33.2091 35 35 33.2091 35 31C35 28.7909 33.2091 27 31 27C28.7909 27 27 28.7909 27 31C27 33.2091 28.7909 35 31 35Z" stroke="url(#paint4_linear)"/>
</g>
<defs>
<linearGradient id="paint0_linear" x1="5" y1="5" x2="5" y2="58" gradientUnits="userSpaceOnUse">
<stop stop-color="white" stop-opacity="0.137593"/>
<stop offset="0.500581" stop-color="#CBCBCB"/>
<stop offset="1" stop-color="white" stop-opacity="0.01"/>
</linearGradient>
<linearGradient id="paint1_linear" x1="1" y1="1" x2="1" y2="61" gradientUnits="userSpaceOnUse">
<stop stop-color="white" stop-opacity="0.137593"/>
<stop offset="0.500581" stop-color="#CBCBCB"/>
<stop offset="1" stop-color="white" stop-opacity="0.01"/>
</linearGradient>
<linearGradient id="paint2_linear" x1="10" y1="10" x2="10" y2="52" gradientUnits="userSpaceOnUse">
<stop stop-color="white" stop-opacity="0.137593"/>
<stop offset="0.500581" stop-color="#CBCBCB"/>
<stop offset="1" stop-color="white" stop-opacity="0.01"/>
</linearGradient>
<linearGradient id="paint3_linear" x1="19" y1="19" x2="19" y2="43" gradientUnits="userSpaceOnUse">
<stop stop-color="white" stop-opacity="0.137593"/>
<stop offset="0.500581" stop-color="#CBCBCB"/>
<stop offset="1" stop-color="white" stop-opacity="0.01"/>
</linearGradient>
<linearGradient id="paint4_linear" x1="27" y1="27" x2="27" y2="35" gradientUnits="userSpaceOnUse">
<stop stop-color="white" stop-opacity="0.137593"/>
<stop offset="0.500581" stop-color="#CBCBCB"/>
<stop offset="1" stop-color="white" stop-opacity="0.01"/>
</linearGradient>
</defs>
</svg>
